<mxfile host="app.diagrams.net" modified="2023-09-22T17:50:15.332Z" agent="Mozilla/5.0 (Windows NT 10.0; Win64; x64) AppleWebKit/537.36 (KHTML, like Gecko) Chrome/116.0.0.0 Safari/537.36" version="21.8.0" etag="7fTsztGXkhc_OcsPdSMb" type="github">
  <diagram name="Page-1" id="CtlRTwW8BKW_4PhKmcSj">
    <mxGraphModel>
      <root>
        <mxCell id="0" />
        <mxCell id="1" parent="0" />
      </root>
    </mxGraphModel>
  </diagram>
</mxfile>
